<!DOCTYPE svg PUBLIC "-//W3C//DTD SVG 1.1//EN" "http://www.w3.org/Graphics/SVG/1.1/DTD/svg11.dtd">

<!-- Uploaded to: SVG Repo, www.svgrepo.com, Transformed by: SVG Repo Mixer Tools -->
<svg fill="#1F2328" height="101px" width="101px" version="1.1" id="Capa_1" xmlns="http://www.w3.org/2000/svg" xmlns:xlink="http://www.w3.org/1999/xlink" viewBox="0 0 490 490" xml:space="preserve" stroke="#000000">

<g id="SVGRepo_bgCarrier" stroke-width="0"/>

<g id="SVGRepo_tracerCarrier" stroke-linecap="round" stroke-linejoin="round"/>

<g id="SVGRepo_iconCarrier"> <g> <path d="M245,0C109.69,0,0,109.69,0,245s109.69,245,245,245s245-109.69,245-245S380.31,0,245,0z M245,459.375 c-118.206,0-214.375-96.168-214.375-214.375c0-118.206,96.169-214.375,214.375-214.375c118.207,0,214.375,96.169,214.375,214.375 C459.375,363.207,363.207,459.375,245,459.375z"/> <path d="M259.236,103.355c-84.473,0-148.175,66.858-148.175,155.503c0,74.035,52.278,127.779,124.309,127.779 c28.517,0,50.753-5.024,72.106-16.284l5.952-3.14l-11.634-31.253l-7.806,4.396c-14.326,8.045-33.646,12.486-54.386,12.486 c-54.596,0-91.277-38.7-91.277-96.286c0-69.624,45.354-120.167,107.83-120.167c52.756,0,85.52,33.795,85.52,88.211 c0,23.836-6.639,44.008-18.214,55.343c-4.905,4.815-10.318,7.447-15.223,7.447c-0.075,0-0.164,0-0.254,0 c-2.363-0.075-3.305-0.882-3.933-1.66c-1.615-2.034-4.89-9.241-0.329-32.375l14.206-75.546l-5.413-2.512 c-12.083-5.593-28.277-8.793-44.412-8.793c-54.536,0-98.903,44.367-98.903,98.903c0,36.876,24.763,56.166,49.227,56.166 c20.098,0,37.055-7.821,50.588-23.283c2.004,5.712,4.92,9.824,7.611,12.651c6.535,6.849,15.806,10.632,26.124,10.632 c37.863,0,76.189-34.109,76.189-99.292C378.94,152.253,329.712,103.355,259.236,103.355z M227.669,285.475 c-15.447,0-17.75-13.533-17.75-21.608c0-33.406,24.524-61.639,53.564-61.639c3.559,0,7.058,0.284,10.378,0.837l-6.759,36.367 C263.318,260.727,245.284,285.475,227.669,285.475z"/> </g> </g>

</svg>