<svg xmlns="http://www.w3.org/2000/svg" xmlns:xlink="http://www.w3.org/1999/xlink" viewBox="0,0,256,256" width="144px" height="144px" fill-rule="nonzero"><g fill="#ffffff" fill-rule="nonzero" stroke="none" stroke-width="1" stroke-linecap="butt" stroke-linejoin="miter" stroke-miterlimit="10" stroke-dasharray="" stroke-dashoffset="0" font-family="none" font-weight="none" font-size="none" text-anchor="none" style="mix-blend-mode: normal"><g transform="scale(10.66667,10.66667)"><path d="M4,5c-1.65,0 -3,1.35 -3,3v7c0,1.3 0.84,2.41031 2,2.82031v-9.82031c0,-0.55 0.45,-1 1,-1h16c0.55,0 1,0.45 1,1v9.82031c1.16,-0.41 2,-1.52031 2,-2.82031v-7c0,-1.65 -1.35,-3 -3,-3zM18,9c-0.552,0 -1,0.448 -1,1v9c0,0.552 0.448,1 1,1c0.552,0 1,-0.448 1,-1v-9c0,-0.552 -0.448,-1 -1,-1zM10,11c-0.552,0 -1,0.448 -1,1v7c0,0.552 0.448,1 1,1c0.552,0 1,-0.448 1,-1v-7c0,-0.552 -0.448,-1 -1,-1zM14,13c-0.552,0 -1,0.448 -1,1v5c0,0.552 0.448,1 1,1c0.552,0 1,-0.448 1,-1v-5c0,-0.552 -0.448,-1 -1,-1zM6,15c-0.552,0 -1,0.448 -1,1v3c0,0.552 0.448,1 1,1c0.552,0 1,-0.448 1,-1v-3c0,-0.552 -0.448,-1 -1,-1z"></path></g></g></svg>