<svg width="146" height="122" viewBox="0 0 146 122" fill="none" xmlns="http://www.w3.org/2000/svg">
<path fill-rule="evenodd" clip-rule="evenodd" d="M69.5 106C95.1812 106 116 86.0767 116 61.5C116 42.6057 103.695 26.4617 86.3362 20.0064C81.1156 18.0651 75.4377 17 69.5 17C43.8188 17 23 36.9233 23 61.5C23 79.5093 34.179 95.02 50.2586 102.023C56.1222 104.577 62.6375 106 69.5 106ZM62.729 84.0007C64.9656 85.111 67.4796 85.6662 70.2713 85.6662C73.3643 85.6662 76.1243 84.9683 78.5511 83.5724C80.978 82.1608 82.8814 80.2415 84.2614 77.8146C85.6572 75.3719 86.3551 72.5961 86.3551 69.4872C86.3551 66.3307 85.681 63.5232 84.3327 61.0646C83.0004 58.6061 81.1604 56.6709 78.8129 55.2592C76.4812 53.8317 73.8243 53.1179 70.8423 53.1179C69.2086 53.1179 67.6383 53.3796 66.1314 53.9031C64.6245 54.4265 63.3714 55.0848 62.3722 55.8778H62.0866L63.7997 41.5071H84.1662V36.2727H58.8509L55.9006 60.2557L61.4205 60.9219C62.4356 60.1922 63.7283 59.5974 65.2987 59.1374C66.869 58.6616 68.3996 58.4316 69.8906 58.4474C71.9685 58.4633 73.8164 58.955 75.4343 59.9226C77.0522 60.8902 78.3211 62.2146 79.2411 63.896C80.177 65.5614 80.6449 67.4569 80.6449 69.5824C80.6449 71.6603 80.1928 73.524 79.2887 75.1736C78.4005 76.8074 77.1712 78.0922 75.6009 79.0281C74.0464 79.9639 72.2699 80.4318 70.2713 80.4318C67.781 80.4318 65.6397 79.718 63.8473 78.2905C62.0708 76.8471 61.0715 75.023 60.8494 72.8182H55.1392C55.2661 75.2926 56.0037 77.4974 57.3519 79.4325C58.7002 81.3677 60.4925 82.8904 62.729 84.0007Z" fill="white"/>
<path fill-rule="evenodd" clip-rule="evenodd" d="M69.5 106C95.1812 106 116 86.0767 116 61.5C116 42.6057 103.695 26.4617 86.3362 20.0064C81.1156 18.0651 75.4377 17 69.5 17C43.8188 17 23 36.9233 23 61.5C23 79.5093 34.179 95.02 50.2586 102.023C56.1222 104.577 62.6375 106 69.5 106ZM62.729 84.0007C64.9656 85.111 67.4796 85.6662 70.2713 85.6662C73.3643 85.6662 76.1243 84.9683 78.5511 83.5724C80.978 82.1608 82.8814 80.2415 84.2614 77.8146C85.6572 75.3719 86.3551 72.5961 86.3551 69.4872C86.3551 66.3307 85.681 63.5232 84.3327 61.0646C83.0004 58.6061 81.1604 56.6709 78.8129 55.2592C76.4812 53.8317 73.8243 53.1179 70.8423 53.1179C69.2086 53.1179 67.6383 53.3796 66.1314 53.9031C64.6245 54.4265 63.3714 55.0848 62.3722 55.8778H62.0866L63.7997 41.5071H84.1662V36.2727H58.8509L55.9006 60.2557L61.4205 60.9219C62.4356 60.1922 63.7283 59.5974 65.2987 59.1374C66.869 58.6616 68.3996 58.4316 69.8906 58.4474C71.9685 58.4633 73.8164 58.955 75.4343 59.9226C77.0522 60.8902 78.3211 62.2146 79.2411 63.896C80.177 65.5614 80.6449 67.4569 80.6449 69.5824C80.6449 71.6603 80.1928 73.524 79.2887 75.1736C78.4005 76.8074 77.1712 78.0922 75.6009 79.0281C74.0464 79.9639 72.2699 80.4318 70.2713 80.4318C67.781 80.4318 65.6397 79.718 63.8473 78.2905C62.0708 76.8471 61.0715 75.023 60.8494 72.8182H55.1392C55.2661 75.2926 56.0037 77.4974 57.3519 79.4325C58.7002 81.3677 60.4925 82.8904 62.729 84.0007Z" fill="#5A2525" fill-opacity="0.2"/>
</svg>
