<svg width="146" height="122" viewBox="0 0 146 122" fill="none" xmlns="http://www.w3.org/2000/svg">
<rect x="49" y="76" width="7" height="11" rx="3" fill="#1F2328"/>
<rect x="84" y="76" width="7" height="11" rx="3" fill="#1F2328"/>
<path fill-rule="evenodd" clip-rule="evenodd" d="M53 36C49.134 36 46 39.134 46 43V74C46 77.866 49.134 81 53 81H88C91.866 81 95 77.866 95 74V43C95 39.134 91.866 36 88 36H53ZM54 44C52.8954 44 52 44.8954 52 46V57C52 58.1046 52.8954 59 54 59H86C87.1046 59 88 58.1046 88 57V46C88 44.8954 87.1046 44 86 44H54ZM89 72C89 74.2091 87.2091 76 85 76C82.7909 76 81 74.2091 81 72C81 69.7909 82.7909 68 85 68C87.2091 68 89 69.7909 89 72ZM55 76C57.2091 76 59 74.2091 59 72C59 69.7909 57.2091 68 55 68C52.7909 68 51 69.7909 51 72C51 74.2091 52.7909 76 55 76Z" fill="#1F2328"/>
</svg>
