<svg width="146" height="122" viewBox="0 0 146 122" fill="none" xmlns="http://www.w3.org/2000/svg">
<g clip-path="url(#clip0_1_2)">
<g clip-path="url(#clip1_1_2)">
<path d="M84.1872 42.0847L72.5915 45.8711L62.5033 50.3235L59.681 51.0686C58.9622 51.7523 58.2086 52.4448 57.3934 53.1459C56.4994 53.9172 55.6668 54.6185 55.0269 55.1267C54.317 55.6877 53.2652 56.7395 52.7306 57.4055C51.933 58.4046 51.3019 59.4651 51.0302 60.2803C50.5481 61.7529 50.7849 63.2428 51.7139 64.619C52.9059 66.3718 55.2812 68.1598 58.0507 69.3781C59.462 70.0005 61.8372 70.798 63.6251 71.245C66.5963 71.9988 72.346 72.8139 75.51 72.9367C76.1497 72.963 77.0088 72.963 77.0437 72.9367C77.1139 72.8927 77.6048 71.955 78.1746 70.7894C80.1203 66.8189 81.5227 63.0938 82.2851 59.9123C82.7409 57.9841 83.1002 55.416 83.3367 52.3748C83.3982 51.5246 83.4244 48.676 83.3718 47.7118C83.2929 46.1342 83.1526 44.8547 82.9337 43.6013C82.8986 43.4172 82.8897 43.2506 82.9074 43.2419C82.9423 43.2156 83.0475 43.1806 84.4762 42.7685L84.1872 42.0847ZM81.5403 43.6361C81.6454 43.6361 81.9258 46.3269 81.9959 48.0273C82.0135 48.3866 82.0046 48.6233 81.9872 48.6233C81.9171 48.6233 80.5059 47.7907 79.4981 47.1597C78.6216 46.6075 76.9564 45.5031 76.6935 45.2927C76.6056 45.2314 76.6144 45.2227 77.3332 44.9772C78.5514 44.5652 81.4439 43.6361 81.5403 43.6361ZM75.6328 45.582C75.7118 45.582 75.9132 45.6958 76.3953 45.9939C78.2008 47.1245 80.655 48.4918 81.7068 48.9477C82.031 49.0879 82.0659 49.0352 81.3211 49.5437C79.7259 50.6305 77.7362 51.6997 75.2996 52.7778C74.8702 52.9706 74.5109 53.1196 74.5022 53.1196C74.4847 53.1196 74.5371 52.9006 74.6072 52.6376C75.1944 50.455 75.5275 48.2464 75.5452 46.4759C75.5539 45.5993 75.5539 45.5993 75.6328 45.5732C75.6152 45.582 75.6239 45.582 75.6328 45.582ZM74.4146 46.0464C74.467 46.0989 74.432 48.0623 74.3619 48.5969C74.2041 49.8766 73.9587 51.0686 73.5557 52.4097C73.4592 52.7338 73.3714 53.0057 73.3541 53.0231C73.3189 53.0669 72.1181 51.8924 71.7237 51.4367C71.04 50.6478 70.5055 49.859 70.111 49.0878C69.9094 48.6933 69.594 47.9221 69.6202 47.8958C69.7604 47.7994 74.3795 46.0114 74.4146 46.0464ZM68.6823 48.2989C68.6911 48.2989 68.6998 48.2989 68.7087 48.3077C68.7261 48.3252 68.7876 48.4655 68.8402 48.6232C69.1206 49.3858 69.7515 50.5076 70.2951 51.2264C70.8911 52.0152 71.6712 52.8566 72.3197 53.4087C72.5301 53.584 72.7228 53.7505 72.749 53.7769C72.8018 53.8295 72.8193 53.8206 71.3905 54.3641C69.7342 54.9952 67.9286 55.6262 65.86 56.2923C65.3659 56.4516 64.8722 56.6123 64.379 56.7744C64.3 56.8007 64.3264 56.7568 64.5542 56.3976C65.5797 54.7936 67.1397 51.6471 68.0163 49.4208C68.1653 49.0351 68.3143 48.6496 68.3406 48.5619C68.3757 48.4391 68.4194 48.3953 68.5333 48.3339C68.5947 48.3166 68.6561 48.2989 68.6823 48.2989ZM66.9296 49.0264C66.9558 49.044 66.5088 49.9818 66.0705 50.8407C65.2203 52.4972 64.2913 54.1276 63.0467 56.1083C62.8364 56.4501 62.6348 56.7657 62.6085 56.8008C62.5647 56.8622 62.5471 56.8445 62.4069 56.5729C62.1089 55.9856 61.8634 55.2318 61.732 54.5394C61.6004 53.8557 61.6268 52.6638 61.7759 51.9276C61.8897 51.3842 61.881 51.393 62.1439 51.2614C63.2658 50.6918 66.8945 48.9914 66.9296 49.0264ZM82.0486 49.64V50.0081C82.0486 51.9627 81.8383 54.6446 81.5314 56.5993C81.4788 56.941 81.4348 57.2214 81.4262 57.2303C81.4262 57.2303 81.1721 57.1602 80.8741 57.0725C79.5594 56.6605 78.1307 56.0557 76.8423 55.3459C75.992 54.8814 74.7563 54.1187 74.7914 54.0836C74.8 54.0749 75.1682 53.8821 75.5976 53.6542C77.3157 52.7602 78.9633 51.7961 80.392 50.8408C80.9267 50.4814 81.7329 49.903 81.9084 49.7452L82.0486 49.64ZM60.3121 52.2342C60.3471 52.2342 60.3383 52.3043 60.2857 52.6199C60.2507 52.8478 60.2069 53.2685 60.1895 53.5576C60.1192 54.8373 60.3297 55.784 60.9607 57.0811C61.136 57.4405 61.2763 57.7385 61.2674 57.7472C61.2061 57.7998 55.4039 59.5003 53.5807 59.9998C53.0374 60.1487 52.5642 60.2803 52.5289 60.2889C52.4677 60.3065 52.4589 60.2978 52.4852 60.1487C52.6867 58.8604 53.6684 57.1775 55.0357 55.7576C55.9472 54.811 56.6747 54.2589 57.9193 53.5488C58.8133 53.0406 60.1894 52.2781 60.2945 52.243C60.2946 52.2342 60.3033 52.2342 60.3121 52.2342ZM73.9851 54.6796C73.9938 54.6709 74.2041 54.7849 74.4583 54.9338C76.334 56.0207 78.9458 57.0286 81.1719 57.5457L81.3736 57.5896L81.0931 57.7472C79.9275 58.3958 76.0973 59.991 72.1795 61.4548C71.6097 61.665 71.0489 61.8755 70.9435 61.9192C70.8384 61.963 70.7419 61.9894 70.7419 61.9806C70.7419 61.9717 70.8998 61.665 71.1012 61.2882C72.1968 59.2372 73.3013 56.7393 73.8622 55.0039C73.9325 54.8374 73.9762 54.6884 73.9851 54.6796ZM72.5915 55.1354C72.6004 55.1443 72.5301 55.3282 72.4424 55.5386C71.68 57.3879 70.6807 59.4039 69.4011 61.6652C69.0768 62.2437 68.8051 62.7083 68.7962 62.7083C68.7876 62.7083 68.5245 62.5504 68.209 62.3576C66.3508 61.2181 64.7031 59.8158 63.6252 58.4573L63.4673 58.2644L64.2648 58.0453C67.1222 57.2653 69.5499 56.4239 71.9603 55.3897C72.3022 55.2494 72.5827 55.1354 72.5915 55.1354ZM81.251 58.1592C81.2597 58.3608 80.8127 60.1664 80.4446 61.4722C80.1378 62.5678 79.8748 63.4268 79.3928 64.943C79.1825 65.6093 78.9985 66.1613 78.9897 66.1613C78.9809 66.1613 78.9283 66.1526 78.8758 66.1352C76.2727 65.6617 73.9412 65.0044 71.7501 64.128C71.1364 63.8825 70.26 63.4881 70.2074 63.4443C70.19 63.4266 70.7159 63.1813 71.382 62.8921C75.3699 61.1479 79.5068 59.167 80.9267 58.317C81.0931 58.2118 81.2247 58.1592 81.251 58.1592ZM61.2587 58.8429C61.2763 58.8604 60.1631 60.4644 58.6029 62.6468C58.0596 63.4093 57.4285 64.3033 57.1919 64.6363C56.9552 64.9694 56.5959 65.4953 56.3943 65.8109L56.026 66.3806L55.6316 66.0475C55.167 65.6618 54.3608 64.838 54.0015 64.3822C53.2476 63.4445 52.7394 62.454 52.5378 61.5514C52.4413 61.1306 52.4413 60.9201 52.5289 60.894C52.6603 60.8589 55.0005 60.3067 57.1918 59.7982C58.4101 59.5179 59.8211 59.1848 60.3295 59.0621C60.8379 58.9392 61.25 58.8429 61.2587 58.8429ZM62.3805 59.2724L62.6609 59.5879C63.9232 60.999 65.2116 62.0422 66.7717 62.9536C67.0522 63.1114 67.2625 63.2515 67.2449 63.2605C67.1837 63.3043 61.8283 65.206 59.3479 66.065C57.9544 66.5558 56.8062 66.9502 56.7975 66.9502C56.7888 66.9502 56.7099 66.8977 56.6221 66.8363L56.4644 66.7223L56.7186 66.3543C57.5424 65.1622 58.5768 63.8564 60.8293 61.1393L62.3805 59.2724ZM69.3749 64.277C69.3835 64.2683 69.7692 64.4084 70.2424 64.5839C71.382 65.0133 72.2846 65.2849 73.4942 65.5918C74.9843 65.9687 77.1403 66.3368 78.4113 66.4419C78.6041 66.4594 78.7093 66.477 78.6742 66.5033C78.6127 66.5384 77.3245 66.9679 76.3778 67.2659C74.8702 67.7391 70.2688 69.0976 66.5175 70.1757C65.8251 70.3773 65.2291 70.5438 65.194 70.5525C65.1065 70.5702 64.8171 70.4911 64.8171 70.4561C64.8171 70.4387 65.0275 70.167 65.2817 69.869C66.5437 68.3614 67.7972 66.6786 68.8402 65.0834C69.1294 64.6451 69.3749 64.2857 69.3749 64.277ZM67.8322 64.3209C67.8409 64.3296 67.2187 65.3288 66.132 67.0466C65.6673 67.7741 65.1502 68.598 64.9661 68.8872C64.7908 69.1677 64.5279 69.606 64.3789 69.8513L64.1247 70.2984L63.9933 70.2633C63.6777 70.1756 61.4602 69.3955 60.873 69.1589C60.1455 68.8696 59.3917 68.5191 58.8307 68.2211C58.1296 67.8442 57.2532 67.2832 57.3233 67.2658C57.3408 67.2571 58.5416 66.9326 59.9877 66.5383C63.8267 65.4952 65.9564 64.8905 67.3501 64.4523C67.6044 64.3734 67.8234 64.312 67.8322 64.3209ZM78.7442 66.8801H78.753C78.788 66.9678 77.3683 70.9119 76.8509 72.1564C76.7372 72.4369 76.6935 72.5071 76.632 72.4982C76.483 72.4896 74.4233 72.2003 73.1698 72.0162C70.9875 71.6832 67.3238 71.0432 66.4036 70.833L66.1933 70.7892L67.499 70.491C70.3038 69.86 71.6536 69.5182 73.0208 69.0975C74.7475 68.5716 76.4567 67.9143 78.1833 67.108C78.455 66.9852 78.6829 66.8888 78.7442 66.8801Z" fill="url(#paint0_linear_1_2)"/>
<path d="M72.2322 15.0543C72.0393 15.0282 68.9277 16.15 66.9207 16.965C64.2123 18.0695 62.1089 19.1214 60.8117 20.0327C60.3297 20.3747 59.7248 20.9793 59.6286 21.2159C59.5935 21.3036 59.5759 21.4088 59.5759 21.5139L60.7504 22.6271L63.5463 23.5211L70.1988 24.7131L77.8064 26.0191L77.8854 25.3617C77.8591 25.3617 77.8415 25.353 77.8154 25.353L76.816 25.1952L76.6146 24.8358C75.5803 23.0127 74.4409 20.7514 73.7748 19.2264C73.2577 18.0431 72.7669 16.6759 72.4951 15.6942C72.3461 15.0982 72.3284 15.063 72.2322 15.0543ZM72.0917 15.5015H72.1008C72.1094 15.5101 72.1444 15.7557 72.1796 16.0447C72.3284 17.272 72.6004 18.455 73.0297 19.7347C73.354 20.6989 73.354 20.6463 72.9772 20.5323C72.0832 20.287 68.0777 19.5946 65.1766 19.1914C64.7121 19.13 64.3176 19.0687 64.3176 19.06C64.2826 19.0249 66.4123 17.9117 67.3502 17.4736C68.5509 16.9213 71.8465 15.5452 72.0917 15.5015ZM63.6426 19.428L63.9846 19.5418C65.8426 20.173 70.5141 21.067 73.091 21.2773C73.3802 21.3036 73.6257 21.33 73.6343 21.33C73.643 21.3387 73.3978 21.4702 73.0822 21.6191C71.8377 22.2415 70.4704 23.004 69.5237 23.5913C69.2434 23.7665 68.9891 23.9068 68.9541 23.9068C68.919 23.9068 68.735 23.8717 68.5422 23.8454L68.1916 23.7928L67.3153 22.9338C65.7726 21.4351 64.5631 20.2782 64.0985 19.8398L63.6426 19.428ZM63.2922 19.6996L64.528 21.2423C65.2028 22.0925 65.8864 22.9251 66.0356 23.1091C66.1844 23.2932 66.3072 23.4423 66.2985 23.451C66.2634 23.4773 64.5106 23.1354 63.5814 22.9252C62.626 22.706 62.2316 22.6008 61.6444 22.4168L61.1623 22.259V22.1362C61.171 21.5489 61.9161 20.6725 63.1782 19.7786L63.2922 19.6996ZM73.7922 21.8032C73.8273 21.8032 73.871 21.8821 73.9762 22.1187C74.2742 22.776 75.2034 24.5466 75.4311 24.8883C75.5014 25.0024 75.6239 25.0111 74.3883 24.8095C71.4171 24.3274 70.4616 24.1698 70.4616 24.1522C70.4616 24.1435 70.5493 24.0821 70.6632 24.0207C71.5836 23.5125 72.5126 22.8638 73.3365 22.1714C73.5381 22.0048 73.7222 21.8471 73.7571 21.8207C73.7659 21.8032 73.7835 21.7945 73.7922 21.8032Z" fill="url(#paint1_linear_1_2)"/>
<path d="M59.6897 21.0932C59.6897 21.0932 59.497 21.4001 59.681 21.8559C59.7951 22.1363 60.1281 22.4781 60.5049 22.8287C60.5049 22.8287 64.4052 26.6326 64.8785 27.176C67.0345 29.6651 67.9724 32.1193 68.0601 35.5025C68.1127 37.6762 67.7006 39.5868 66.6752 41.8043C64.8522 45.7836 61.0044 50.1747 55.0707 55.0479L55.9386 54.7586C56.4995 54.3379 57.262 53.891 59.05 52.9093C63.1781 50.6479 67.8234 48.5707 73.5205 46.4321C81.7241 43.3468 95.2131 39.7357 102.891 38.5614L103.689 38.4386L103.566 38.2458C102.865 37.1589 102.383 36.4841 101.804 35.7654C100.121 33.6794 98.0792 31.9879 95.5812 30.5855C92.1454 28.6661 87.7016 27.1673 82.0748 26.0542C81.0143 25.8437 78.6828 25.4406 76.7897 25.1514C72.7754 24.5292 70.181 24.0997 67.3238 23.6088C66.2984 23.4335 64.7645 23.1706 63.7478 22.9515C63.2219 22.8375 62.214 22.6009 61.4252 22.3292C60.7942 22.0837 59.8826 21.8382 59.6897 21.0932ZM61.9512 23.2845C61.9598 23.2759 62.1 23.3283 62.2842 23.3897C62.6172 23.5035 63.0467 23.635 63.5552 23.7753C63.9398 23.8811 64.3255 23.9834 64.7121 24.0821C65.2379 24.2135 65.6761 24.3362 65.6848 24.3362C65.7463 24.3976 66.6316 27.2284 66.9296 28.3153C67.0433 28.7273 67.1312 29.0778 67.1224 29.0778C67.1134 29.0867 67.0171 28.9376 66.9032 28.736C65.8777 26.9305 64.2562 25.0987 62.3806 23.6261C62.1353 23.451 61.9512 23.2932 61.9512 23.2845ZM66.2634 24.4765C66.3072 24.4765 66.5001 24.5028 66.7366 24.5553C68.2266 24.8884 70.8999 25.3968 72.6089 25.686C72.8982 25.7298 73.1262 25.7825 73.1262 25.7999C73.1262 25.8175 73.0209 25.8788 72.8894 25.949C72.6003 26.0979 71.4345 26.7903 71.0489 27.0533C70.0759 27.7018 69.1996 28.403 68.5685 29.034C68.3143 29.2883 68.0951 29.4986 68.0951 29.4986C68.0951 29.4986 68.0427 29.3497 67.9986 29.1655C67.6833 27.9472 67.0258 26.1416 66.4298 24.8708C66.3334 24.6693 66.2545 24.4852 66.2545 24.4677C66.2545 24.4852 66.2545 24.4765 66.2634 24.4765ZM73.8536 25.9227C73.9061 25.9401 73.9938 26.2382 74.1691 26.8955C74.4934 28.1664 74.6424 29.5863 74.5898 30.9098C74.5722 31.2779 74.5548 31.6197 74.5371 31.6636L74.5109 31.7511L74.0552 31.6022C73.1173 31.3042 71.5923 30.8571 70.2864 30.4891C69.5413 30.2875 68.9367 30.1034 68.9367 30.0859C68.9367 30.0332 70.0236 28.9464 70.488 28.5346C71.3731 27.7544 73.7746 25.8963 73.8536 25.9227ZM74.4583 26.0102C74.4847 25.9841 78.0869 26.6062 79.726 26.9218C80.9443 27.1584 82.7147 27.5265 82.8199 27.5704C82.8724 27.5879 82.6883 27.6931 82.1011 27.956C79.7873 28.9991 78.0693 29.9368 76.3604 31.0763C75.9133 31.3743 75.5364 31.6197 75.5277 31.6197C75.5189 31.6197 75.5102 31.3655 75.5102 31.0587C75.5102 29.3935 75.1771 27.7106 74.5634 26.2908C74.5021 26.1505 74.4495 26.0191 74.4583 26.0102ZM83.7752 27.8509C83.8015 27.8772 83.6875 28.5872 83.5823 29.0078C83.2668 30.3138 82.4167 32.2509 81.3738 34.0738C81.1896 34.3981 81.0231 34.6611 81.0054 34.6698C80.9881 34.6786 80.7514 34.547 80.4797 34.3893C79.463 33.7933 78.3061 33.2324 77.0439 32.7064C76.6934 32.5575 76.3866 32.4347 76.3778 32.4173C76.3163 32.3647 79.1386 30.4978 80.6287 29.6038C81.8119 28.8851 83.7401 27.8158 83.7752 27.8509ZM84.4412 27.956C84.5202 27.956 86.1154 28.3943 86.9479 28.6397C89.0077 29.2533 91.3741 30.1209 92.9167 30.8221L93.5564 31.1114L93.1096 31.2165C89.3408 32.0842 86.1154 33.0835 83.0038 34.3456C82.7497 34.4507 82.5217 34.5384 82.5044 34.5384C82.4868 34.5384 82.5744 34.3368 82.6884 34.0913C83.6262 32.1018 84.231 30.0245 84.3798 28.254C84.3888 28.0874 84.4149 27.956 84.4412 27.956ZM68.5597 31.6022C68.586 31.5758 69.8043 31.8651 70.4616 32.049C71.4608 32.3296 73.5818 33.0395 73.5818 33.0921C73.5818 33.1009 73.3452 33.3025 73.0648 33.548C71.9167 34.5033 70.8122 35.5111 69.4887 36.7908C69.0942 37.1678 68.7613 37.4746 68.7438 37.4746C68.7262 37.4746 68.7176 37.4218 68.7262 37.3518C68.9278 35.8792 68.8841 33.9861 68.6036 32.0667C68.5772 31.8212 68.551 31.6109 68.5597 31.6022ZM94.1614 31.6285C94.1788 31.646 93.6004 32.5575 93.2323 33.0746C92.7065 33.8283 91.935 34.8277 90.1908 37.0188C89.2707 38.1756 88.2363 39.4817 87.8946 39.9199C87.5439 40.3581 87.2548 40.7261 87.2459 40.7261C87.2372 40.7261 87.1234 40.5685 87.0006 40.3757C86.0189 38.9031 84.8444 37.6147 83.4508 36.4578C83.1879 36.2386 82.8988 36.002 82.8023 35.9319C82.7059 35.8618 82.6269 35.7917 82.6269 35.7829C82.6269 35.7567 84.1168 35.1167 85.2477 34.6611C87.2285 33.8547 89.9277 32.8906 91.9526 32.2682C93.0131 31.9352 94.1438 31.6109 94.1614 31.6285ZM94.8362 31.8037C94.8712 31.795 95.0816 31.9002 95.3358 32.049C97.4657 33.2673 99.5516 34.8363 101.199 36.449C101.664 36.9049 102.812 38.0969 102.794 38.1056C102.794 38.1056 102.391 38.1406 101.918 38.1756C98.2282 38.4562 93.5041 39.2361 88.9639 40.3317C88.6572 40.4017 88.3855 40.4631 88.3679 40.4631C88.3506 40.4631 88.6923 40.1214 89.1218 39.7095C91.7862 37.1414 93.0046 35.52 94.4419 32.6275C94.6434 32.1982 94.8188 31.8301 94.8362 31.8037C94.8275 31.8037 94.8275 31.8037 94.8362 31.8037ZM75.3172 33.8022C75.44 33.8283 76.5794 34.3632 77.4383 34.7925C78.2272 35.1868 79.4105 35.818 79.4718 35.8705C79.4805 35.8792 79.0597 36.0984 78.5428 36.3526C76.8949 37.1765 75.4839 37.9564 74.0113 38.8505C73.5906 39.1047 73.2401 39.3152 73.2313 39.3152C73.1962 39.3152 73.205 39.2799 73.4417 38.8505C74.2305 37.4132 74.8615 35.6953 75.221 34.0212C75.2559 33.8897 75.291 33.8022 75.3172 33.8022ZM74.1778 34.0124C74.2041 34.0388 73.9061 35.1168 73.7222 35.704C73.3627 36.8172 72.758 38.2107 72.1708 39.2625C72.0304 39.5078 71.8201 39.8672 71.7062 40.0687L71.4871 40.4193L70.9963 39.9462C70.4266 39.3939 69.962 39.0521 69.3661 38.7453C69.1293 38.6227 68.9453 38.5174 68.9453 38.5C68.9453 38.4299 70.4441 37.0713 71.5923 36.0897C72.4161 35.3797 74.1515 33.9862 74.1778 34.0124ZM81.1459 36.8786L81.5754 37.1589C82.5568 37.7989 83.7137 38.649 84.5992 39.3939C85.0986 39.8058 86.0627 40.6736 86.2557 40.884L86.3607 40.998L85.6509 41.1995C81.6366 42.3126 78.5339 43.303 74.9141 44.6353C74.5109 44.7842 74.1691 44.9069 74.1427 44.9069C74.0903 44.9069 74.0463 44.9507 74.9492 44.118C77.2631 41.9884 79.3139 39.6393 80.839 37.3517L81.1459 36.8786ZM79.314 37.3343C79.3315 37.3518 78.1308 39.0433 77.412 39.9987C76.5531 41.1381 75.028 43.0488 73.9762 44.2933C73.5381 44.8105 73.1613 45.2399 73.1437 45.2488C73.1173 45.2575 73.1086 45.126 73.1086 44.9244C73.1086 43.8638 72.8369 42.7332 72.3636 41.7691C72.162 41.366 72.1269 41.2695 72.1709 41.2258C72.3373 41.0767 74.8878 39.6218 76.5005 38.7541C77.5873 38.1757 79.2875 37.3168 79.314 37.3343ZM68.2353 40.0514C68.2617 40.0514 68.4633 40.1564 68.6912 40.2792C69.2521 40.586 69.7517 40.9278 70.1987 41.296C70.2162 41.3134 69.9884 41.4976 69.6904 41.7166C68.8577 42.3126 67.5956 43.268 66.8595 43.8552C66.088 44.4688 66.0619 44.4863 66.1494 44.3548C66.728 43.4696 67.0171 42.97 67.324 42.3302C67.5956 41.7606 67.8673 41.0856 68.0601 40.4984C68.1302 40.2442 68.2179 40.0514 68.2353 40.0514ZM71.1892 42.3652C71.2328 42.3565 71.2856 42.4353 71.5221 42.786C72.0217 43.5308 72.4074 44.5301 72.5039 45.3365L72.5213 45.5118L71.3207 45.9764C69.1732 46.8089 67.1925 47.6329 65.8513 48.2463C65.4745 48.4217 64.8172 48.7371 64.3878 48.9476C63.9582 49.1666 63.6077 49.3332 63.6077 49.3244C63.6077 49.3157 63.8793 49.1141 64.2123 48.8686C66.8332 46.9668 69.1031 44.8807 70.8035 42.7947C70.9876 42.5755 71.1542 42.3739 71.1715 42.3652L71.1892 42.3652ZM69.8306 42.6983C69.8657 42.7333 68.8666 43.8639 68.1829 44.5563C66.4913 46.2831 64.8172 47.6329 62.7399 48.9476C62.477 49.1141 62.2404 49.263 62.2141 49.2807C62.1527 49.3157 62.2315 49.228 63.1431 48.2376C63.7216 47.6153 64.1598 47.0894 64.6594 46.4409C64.9924 46.0115 65.0538 45.9501 65.536 45.6081C66.8244 44.6791 69.7956 42.6632 69.8306 42.6983Z" fill="url(#paint2_radial_1_2)"/>
<path d="M31.8766 78.9902C31.7149 78.9902 31.5532 79.0056 31.3929 79.0056C28.1272 79.1797 25.9247 80.6169 24.6368 83.4235C23.5354 85.9618 23.6557 89.2798 24.6492 91.8337C25.8045 94.3291 27.6714 95.6462 30.7875 96.1436C31.4469 96.2516 31.889 96.6135 33.1659 98.1045L34.7371 99.9453H37.5868L35.692 98.0351C34.6445 96.9877 33.7973 96.0758 33.7973 95.9956C33.7973 95.9156 34.198 95.74 34.683 95.5922C36.282 95.1083 37.6098 93.873 38.5386 91.9799C39.2903 90.4597 39.3982 89.9897 39.506 88.0983C39.7879 82.4682 36.8195 78.9484 31.8765 78.9886L31.8766 78.9902ZM34.375 93.7131C32.9887 94.3845 30.9756 94.5186 29.6616 94.0365C28.303 93.5375 26.9875 92.1265 26.3959 90.5291C25.7382 88.7824 25.8321 85.56 26.5838 84.1088C27.793 81.7983 29.392 80.7355 31.7287 80.7355C35.1945 80.7355 37.1662 82.8582 37.4234 86.8477C37.6268 90.178 36.5115 92.6764 34.3765 93.7117L34.375 93.7131ZM83.6022 83.7992C82.4068 83.7992 81.4919 84.283 80.8756 85.2363L80.3919 85.9912V84.0287H78.3233V95.7972H80.3906V92.0356C80.3906 88.5959 80.4335 88.1939 80.9142 87.2526C81.5766 85.9618 82.7163 85.3181 83.8179 85.6262L84.5572 85.8419V83.8024H83.6022V83.7992ZM71.4487 83.6913C71.0434 83.6913 70.6136 83.7453 70.1857 83.8394C67.4175 84.5632 65.8571 87.2126 65.9526 89.9391C65.9526 92.222 66.3961 93.3633 67.4977 94.5603C69.7544 96.4117 71.7953 96.5596 74.5494 95.5662C75.0193 95.3659 75.5306 95.1349 75.5306 95.1349V93.2834L74.5494 93.7917C72.3205 94.7621 70.6415 94.7621 69.2966 93.6191C68.4388 92.7457 68.0613 91.6983 67.8873 90.5031H76.2284V88.9163C76.2284 85.6815 74.2814 83.639 71.447 83.6913H71.4487ZM68.0752 88.8516C68.0752 88.8516 68.3834 86.8338 69.5263 86.042C70.0763 85.6538 70.7078 85.4659 71.3254 85.4659C71.9447 85.4659 72.5623 85.6661 73.0722 86.0559C74.1198 86.8615 74.2953 88.8364 74.2953 88.8364H68.0753V88.8516H68.0752ZM18.2027 86.7291C15.96 85.3704 14.9649 84.3907 15.0866 83.2354C15.4346 80.0392 19.3842 80.4813 21.5715 81.6905L21.587 79.5402C21.587 79.5402 20.3778 79.0165 18.6448 78.9887C15.9861 78.9487 14.2671 79.8204 13.4616 81.595C12.2784 84.2136 13.326 86.1883 17.1123 88.3911C19.238 89.6279 20.1775 90.7017 20.1775 91.8723C20.1775 94.2907 17.2616 95.1349 14.2534 93.6175C13.6342 93.3095 13.1104 93.0522 13.0827 93.0522C12.9748 93.7377 13.0305 95.3781 13.0305 95.3781C13.0305 95.3781 13.9547 95.7664 15.3409 96.0342C18.7789 96.7197 21.9075 95.1069 22.2032 92.4883C22.4605 90.03 21.5715 88.7406 18.2028 86.7273L18.2027 86.7291ZM101.911 83.6637C101.507 83.6637 101.079 83.7191 100.632 83.8131C97.8675 84.5371 96.3101 87.1866 96.4163 89.9131C96.4163 92.1928 96.8585 93.3234 97.9598 94.5187C100.217 96.3718 102.258 96.5211 105.026 95.5262C105.494 95.326 106.004 95.0981 106.004 95.0981V93.2436L105.024 93.7548C102.791 94.7222 101.111 94.7222 99.7715 93.5793C98.9088 92.7074 98.5345 91.6722 98.3604 90.463H106.688V88.8764C106.688 85.6572 104.741 83.613 101.906 83.667L101.911 83.6637ZM98.5375 88.8239C98.5375 88.8239 98.8487 86.8091 99.99 86.0019C100.538 85.6123 101.17 85.4243 101.788 85.4243C102.404 85.4243 103.025 85.6245 103.535 86.0157C104.582 86.8214 104.758 88.81 104.758 88.81H98.5392L98.5375 88.8239ZM60.6198 86.7553C58.3771 85.3997 57.385 84.4169 57.5052 83.2615C57.8533 80.0637 61.8029 80.5074 63.9902 81.7167L64.0056 79.5664C64.0056 79.5664 62.7964 79.0426 61.0634 79.0179C58.4047 78.9779 56.6857 79.8497 55.8787 81.6242C54.6972 84.2427 55.7585 86.2175 59.5324 88.4203C61.6551 89.6558 62.5947 90.7155 62.5947 91.8861C62.5947 94.3046 59.6803 95.1626 56.6719 93.6313C56.0558 93.3233 55.5321 93.069 55.5013 93.069C55.3934 93.7544 55.449 95.3951 55.449 95.3951C55.449 95.3951 56.3624 95.7694 57.7441 96.0512C61.1852 96.7382 64.3153 95.1269 64.6096 92.5083C64.8653 90.0622 63.978 88.7729 60.6199 86.7581V86.7553H60.6198ZM114.066 83.7715C112.871 83.7715 111.945 84.2566 111.34 85.2102L110.856 85.9619V84.0026H108.787V95.7679H110.854V92.0065C110.854 88.5683 110.896 88.1647 111.378 87.2251C112.04 85.9358 113.18 85.2905 114.282 85.6L115.021 85.8156V83.7716L114.066 83.7715ZM44.1687 86.6874V79.1919H42.0832V95.7941H50.8541V93.8333H44.1688V86.6874H44.1687ZM92.4007 89.0241L90.6817 93.4974L89.0287 88.9994L87.3498 84.0149H85.2149C86.5982 87.9367 88.1029 91.9262 89.6203 95.7941C90.2781 95.8095 90.9373 95.7941 91.5949 95.7941L93.9164 89.9653L96.2809 84.0164H94.24C94.24 84.0164 93.3387 86.3794 92.3992 89.0257L92.4007 89.0241ZM48.9746 74.6678C49.3105 74.6678 49.5908 74.5601 49.8218 74.3291C50.0497 74.101 50.1699 73.833 50.1699 73.4972C50.1699 73.1614 50.0497 72.881 49.8218 72.6654C49.5908 72.4498 49.3243 72.3418 48.99 72.3418C48.6512 72.3418 48.3708 72.4498 48.1428 72.6776C47.9118 72.9057 47.807 73.1861 47.807 73.5096C47.807 73.8485 47.9149 74.1287 48.1428 74.3414C48.3585 74.557 48.6389 74.6648 48.9746 74.6648V74.6678ZM48.2353 72.7578C48.4355 72.5577 48.6789 72.4651 48.9901 72.4651C49.2828 72.4651 49.5262 72.5577 49.7296 72.7578C49.9298 72.9581 50.0376 73.2014 50.0376 73.4972C50.0376 73.7929 49.9298 74.0487 49.7296 74.2489C49.5263 74.449 49.2828 74.5446 48.9901 74.5446C48.6928 74.5446 48.4509 74.4522 48.2508 74.2489C48.0505 74.0487 47.9427 73.7929 47.9427 73.4972C47.9427 73.2014 48.0351 72.9582 48.2353 72.7578ZM48.7328 73.6051H48.8683C48.9639 73.6051 49.0578 73.6975 49.1379 73.8731L49.2998 74.2365H49.5538L49.3537 73.8328C49.2721 73.6712 49.192 73.5773 49.098 73.5509C49.2166 73.5232 49.3105 73.4832 49.3783 73.403C49.4459 73.3338 49.4707 73.2398 49.4707 73.1335C49.4707 73.0103 49.4322 72.918 49.3506 72.8501C49.2581 72.7731 49.1102 72.7316 48.9192 72.7316H48.4911V74.2365H48.7067V73.605L48.7328 73.6051ZM48.7328 72.9057H48.9208C49.0563 72.9057 49.1519 72.9334 49.2042 72.9734C49.2551 73.0135 49.2689 73.066 49.2689 73.1614C49.2689 73.3354 49.161 73.4172 48.9609 73.4172H48.7299V72.9057H48.7328ZM14.2808 73.471C14.2808 72.9473 14.2655 72.5577 14.2531 72.3281H14.2655C14.3193 72.599 14.3856 72.801 14.4395 72.9349L16.4419 77.4082H16.7778L18.7802 72.8949C18.8342 72.7718 18.8881 72.5869 18.9543 72.3296H18.9697C18.9297 72.7764 18.9158 73.1645 18.9158 73.4741V77.4221H19.6012V71.5533H18.7417L16.901 75.6352C16.8332 75.7969 16.7392 76.0389 16.6191 76.3593H16.5912C16.5512 76.2006 16.4573 75.9587 16.3233 75.6629L14.5241 71.5393H13.6107V77.408H14.27V73.4739L14.2808 73.471ZM21.1031 73.482H21.6948V77.1371H21.1031V73.482ZM21.3989 72.1417C21.5222 72.1417 21.6269 72.1 21.707 72.0185C21.7887 71.9383 21.8427 71.8336 21.8427 71.7105C21.8427 71.5903 21.8025 71.4824 21.7086 71.4024C21.6254 71.3207 21.5191 71.279 21.3974 71.279C21.2774 71.279 21.1696 71.3207 21.0893 71.4024C21.0079 71.4824 20.9538 71.5903 20.9538 71.7105C20.9538 71.8445 20.9955 71.9383 21.0893 72.0185C21.1819 72.1 21.2773 72.1417 21.3974 72.1417H21.3989ZM25.9123 77.2173V76.5733C25.5888 76.8152 25.2406 76.9355 24.8802 76.9355C24.449 76.9355 24.0992 76.7876 23.8435 76.5043C23.5894 76.2239 23.4539 75.834 23.4539 75.3489C23.4539 74.8406 23.5894 74.4368 23.8697 74.1288C24.1393 73.8331 24.489 73.6852 24.9173 73.6852C25.2669 73.6852 25.6025 73.7931 25.9124 74.0089V73.3234C25.6305 73.1755 25.3086 73.1077 24.945 73.1077C24.2733 73.1077 23.7497 73.3234 23.3585 73.7394C22.9702 74.1553 22.77 74.7206 22.77 75.403C22.77 76.0098 22.944 76.5198 23.3061 76.9095C23.6835 77.31 24.1658 77.5133 24.7572 77.5133C25.2145 77.5007 25.5888 77.4051 25.9123 77.2173ZM27.6051 75.2687C27.6051 74.7865 27.7129 74.3969 27.9131 74.1287C28.1012 73.887 28.329 73.7653 28.5986 73.7653C28.8266 73.7653 28.9883 73.8069 29.1068 73.9008V73.2014C29.0145 73.1615 28.8805 73.1476 28.7064 73.1476C28.4646 73.1476 28.2491 73.229 28.0595 73.3787C27.8593 73.5371 27.6991 73.7792 27.6051 74.0872H27.5898V73.2291H26.9198V77.419H27.5913V75.2687H27.6051ZM31.4606 77.5022C32.0923 77.5022 32.6006 77.2988 32.9779 76.8953C33.3536 76.4946 33.5416 75.9557 33.5416 75.2839C33.5416 74.5986 33.3692 74.0749 33.018 73.685C32.6699 73.2955 32.1861 73.1073 31.5545 73.1073C30.9229 73.1073 30.4145 73.2954 30.0372 73.6588C29.6337 74.0595 29.4211 74.6248 29.4211 75.3503C29.4211 75.9819 29.5936 76.5057 29.9572 76.8953C30.333 77.2988 30.8306 77.5006 31.4606 77.5006V77.5022ZM30.5056 74.0887C30.7613 73.8191 31.0972 73.685 31.513 73.685C31.9444 73.685 32.2678 73.8191 32.5082 74.0887C32.7499 74.3706 32.8702 74.7727 32.8702 75.3102C32.8702 75.8215 32.7623 76.2237 32.5343 76.4932C32.3064 76.7751 31.9706 76.9245 31.5268 76.9245C31.0956 76.9245 30.7613 76.775 30.5056 76.4932C30.2515 76.2098 30.1298 75.8215 30.1298 75.3102C30.1036 74.8019 30.2377 74.3861 30.5056 74.0887ZM36.4823 77.1371C36.738 76.9093 36.8737 76.6289 36.8737 76.2775C36.8737 75.9694 36.7657 75.7138 36.5655 75.512C36.4021 75.3504 36.1497 75.2039 35.7846 75.056C35.461 74.9206 35.2608 74.8003 35.1529 74.7063C35.0451 74.5986 34.9789 74.4647 34.9789 74.2751C34.9789 74.1011 35.0467 73.967 35.1793 73.8592C35.3148 73.7515 35.4873 73.6992 35.7184 73.6992C36.0804 73.6992 36.3899 73.7946 36.6733 73.9964V73.3248C36.4022 73.1894 36.108 73.1247 35.7722 73.1247C35.3409 73.1247 34.9774 73.2434 34.7092 73.4726C34.4273 73.7008 34.2934 73.9965 34.2934 74.3445C34.2934 74.6526 34.3857 74.9084 34.5613 75.0962C34.7092 75.2564 34.962 75.4198 35.313 75.566C35.6489 75.7139 35.8769 75.8478 35.9985 75.9556C36.1186 76.0635 36.1725 76.1974 36.1725 76.3563C36.1725 76.7474 35.9046 76.9493 35.3808 76.9493C34.9772 76.9493 34.6153 76.8168 34.2916 76.5488V77.2726C34.5844 77.4484 34.9356 77.5284 35.3237 77.5284C35.8213 77.5022 36.2109 77.3806 36.479 77.1387L36.4823 77.1371ZM39.6801 73.1075C39.0484 73.1075 38.5402 73.2955 38.1628 73.659C37.7623 74.0597 37.5467 74.6249 37.5467 75.3505C37.5467 75.982 37.7209 76.5058 38.0828 76.8955C38.4602 77.2989 38.9561 77.5007 39.5877 77.5007C40.2346 77.5007 40.7277 77.2975 41.105 76.8938C41.4824 76.4934 41.6703 75.9542 41.6703 75.2825C41.6703 74.5971 41.4947 74.0734 41.1465 73.6837C40.7831 73.2939 40.2993 73.106 39.6831 73.106L39.6801 73.1075ZM40.9832 75.3103C40.9832 75.8216 40.8754 76.2237 40.6475 76.4933C40.4194 76.7752 40.0836 76.9245 39.6399 76.9245C39.2085 76.9245 38.8744 76.7751 38.6186 76.4933C38.3645 76.2099 38.2428 75.8216 38.2428 75.3103C38.2428 74.7712 38.3769 74.3554 38.6465 74.0749C38.9005 73.8069 39.2365 73.6713 39.6539 73.6713C40.0697 73.6713 40.404 73.8067 40.6458 74.0749C40.8615 74.3706 40.9817 74.7727 40.9817 75.3103H40.9832ZM42.7979 77.4067H43.4679V73.7792H44.4491V73.2154H43.4679V72.5684C43.4679 71.9801 43.6957 71.6843 44.1672 71.6843C44.3259 71.6843 44.4876 71.7243 44.6078 71.7922V71.1869C44.4876 71.133 44.3259 71.1207 44.1239 71.1207C43.762 71.1207 43.4663 71.2286 43.2244 71.4565C42.9424 71.7245 42.7931 72.0726 42.7931 72.5441V73.2311H42.0844V73.7948H42.7931V77.4087L42.7979 77.4067ZM45.5504 76.2637C45.5504 77.0833 45.9125 77.5007 46.6518 77.5007C46.9199 77.5007 47.1216 77.4576 47.2834 77.3621V76.786C47.1602 76.8785 47.0138 76.9217 46.8521 76.9217C46.6243 76.9217 46.464 76.8676 46.37 76.7459C46.2744 76.6259 46.2206 76.4224 46.2206 76.142V73.7777H47.2833V73.2138H46.2206V71.9786C45.9895 72.0586 45.7631 72.1264 45.5489 72.1941V73.2137H44.8249V73.7776H45.5489V76.2622L45.5504 76.2637ZM117.64 83.9871C117.412 83.7715 117.142 83.6636 116.808 83.6636C116.469 83.6636 116.189 83.7715 115.961 84.0025C115.733 84.229 115.625 84.5108 115.625 84.8344C115.625 85.1702 115.733 85.4506 115.959 85.6661C116.187 85.8818 116.467 85.9897 116.806 85.9897C117.14 85.9897 117.422 85.8818 117.653 85.6538C117.88 85.4228 118 85.1563 118 84.8221C117.988 84.4832 117.866 84.2028 117.638 83.9872L117.64 83.9871ZM117.532 85.5738C117.332 85.7739 117.088 85.8664 116.792 85.8664C116.5 85.8664 116.256 85.7739 116.053 85.5738C115.853 85.3704 115.745 85.1163 115.745 84.8189C115.745 84.5262 115.837 84.283 116.041 84.0796C116.241 83.8795 116.483 83.7869 116.792 83.7869C117.085 83.7869 117.329 83.8795 117.532 84.0796C117.732 84.283 117.84 84.5262 117.84 84.8189C117.84 85.1302 117.747 85.3704 117.532 85.5738ZM116.928 84.8882C117.048 84.8605 117.144 84.8066 117.21 84.7404C117.278 84.671 117.302 84.577 117.302 84.4694C117.302 84.3493 117.264 84.2537 117.182 84.1875C117.09 84.1104 116.941 84.0688 116.751 84.0688H116.323V85.5721H116.539V84.9406H116.673C116.765 84.9406 116.857 85.0329 116.941 85.2086L117.101 85.5706H117.356L117.156 85.1669C117.087 84.9913 117.007 84.9111 116.925 84.8849L116.928 84.8882ZM116.78 84.7528H116.549V84.2445H116.739C116.873 84.2445 116.967 84.2691 117.021 84.3108C117.074 84.3507 117.087 84.4032 117.087 84.4987C117.087 84.6727 116.979 84.7529 116.779 84.7529L116.78 84.7528ZM79.3046 73.0413H79.4925V71.5364H79.9899V71.3484H78.8071V71.5364H79.3047V73.0413H79.3046ZM80.4444 71.9107C80.4444 71.7642 80.4444 71.6441 80.4336 71.5765C80.446 71.6565 80.4737 71.7105 80.4861 71.7505L81.0638 73.0413H81.1562L81.7352 71.7381C81.7508 71.6981 81.7631 71.6457 81.7892 71.5765C81.7769 71.7105 81.7769 71.8181 81.7769 71.8999V73.0398H81.9772V71.3484H81.7352L81.2117 72.5161C81.1993 72.5577 81.1575 72.6392 81.1315 72.7318H81.116C81.1052 72.6777 81.0776 72.6239 81.039 72.5316L80.5153 71.3486H80.2443V73.043H80.4336V71.9123L80.4444 71.9107Z" fill="#1F2328"/>
</g>
</g>
<defs>
<linearGradient id="paint0_linear_1_2" x1="59.5106" y1="67.2287" x2="63.7036" y2="64.7511" gradientUnits="userSpaceOnUse">
<stop/>
<stop offset="1"/>
</linearGradient>
<linearGradient id="paint1_linear_1_2" x1="59.6066" y1="20.5195" x2="62.9804" y2="20.5195" gradientUnits="userSpaceOnUse">
<stop/>
<stop offset="1"/>
</linearGradient>
<radialGradient id="paint2_radial_1_2" cx="0" cy="0" r="1" gradientUnits="userSpaceOnUse" gradientTransform="translate(76.6309 35.9928) rotate(-171.457) scale(4.34977 8.70169)">
<stop/>
<stop offset="1"/>
</radialGradient>
<clipPath id="clip0_1_2">
<rect width="146" height="122" fill="white"/>
</clipPath>
<clipPath id="clip1_1_2">
<rect width="105" height="105" fill="white" transform="translate(13 5)"/>
</clipPath>
</defs>
</svg>
