<svg width="146" height="122" viewBox="0 0 146 122" fill="none" xmlns="http://www.w3.org/2000/svg">
<path d="M73.875 80C73.875 82.3555 71.9121 84.1875 69.6875 84.1875H36.1875C33.832 84.1875 32 82.3555 32 80V29.75C32 27.5254 33.832 25.6934 36.1875 25.6934H69.6875C71.9121 25.6934 73.875 27.5254 73.875 29.8809C73.875 32.1055 71.9121 34.0684 69.6875 34.0684H40.375V50.8184H61.3125C63.5371 50.8184 65.5 52.6504 65.5 54.875C65.5 57.2305 63.5371 59.1934 61.3125 59.1934H40.375V75.9434H69.6875C71.9121 75.8125 73.875 77.7754 73.875 80ZM115.75 29.8809C115.75 32.1055 113.787 34.0684 111.562 34.0684H82.25V50.8184H103.188C105.412 50.8184 107.375 52.6504 107.375 54.875C107.375 56.9688 105.412 59.0625 103.188 59.0625H82.25V80C82.25 82.2246 80.2871 84.1875 78.0625 84.1875C75.707 84.1875 73.875 82.2246 73.875 80V29.75C73.875 27.5254 75.707 25.6934 78.0625 25.6934H111.562C113.787 25.6934 115.75 27.5254 115.75 29.8809Z" fill="white"/>
</svg>
