<svg width="146" height="122" viewBox="0 0 146 122" fill="none" xmlns="http://www.w3.org/2000/svg">
<rect x="26" y="24" width="86" height="67" rx="6" stroke="white" stroke-width="2"/>
<mask id="path-2-inside-1_1_2" fill="white">
<path fill-rule="evenodd" clip-rule="evenodd" d="M32 23C28.134 23 25 26.134 25 30V77C25 80.866 28.134 84 32 84H106C109.866 84 113 80.866 113 77V30C113 26.134 109.866 23 106 23H32ZM52.0199 31.5455V73H57.0398V54.4588H79.1435V73H84.1634V31.5455H79.1435V50.0057H57.0398V31.5455H52.0199Z"/>
</mask>
<path fill-rule="evenodd" clip-rule="evenodd" d="M32 23C28.134 23 25 26.134 25 30V77C25 80.866 28.134 84 32 84H106C109.866 84 113 80.866 113 77V30C113 26.134 109.866 23 106 23H32ZM52.0199 31.5455V73H57.0398V54.4588H79.1435V73H84.1634V31.5455H79.1435V50.0057H57.0398V31.5455H52.0199Z" fill="white"/>
<path d="M52.0199 73H50.0199V75H52.0199V73ZM52.0199 31.5455V29.5455H50.0199V31.5455H52.0199ZM57.0398 73V75H59.0398V73H57.0398ZM57.0398 54.4588V52.4588H55.0398V54.4588H57.0398ZM79.1435 54.4588H81.1435V52.4588H79.1435V54.4588ZM79.1435 73H77.1435V75H79.1435V73ZM84.1634 73V75H86.1634V73H84.1634ZM84.1634 31.5455H86.1634V29.5455H84.1634V31.5455ZM79.1435 31.5455V29.5455H77.1435V31.5455H79.1435ZM79.1435 50.0057V52.0057H81.1435V50.0057H79.1435ZM57.0398 50.0057H55.0398V52.0057H57.0398V50.0057ZM57.0398 31.5455H59.0398V29.5455H57.0398V31.5455ZM27 30C27 27.2386 29.2386 25 32 25V21C27.0294 21 23 25.0294 23 30H27ZM27 77V30H23V77H27ZM32 82C29.2386 82 27 79.7614 27 77H23C23 81.9706 27.0294 86 32 86V82ZM106 82H32V86H106V82ZM111 77C111 79.7614 108.761 82 106 82V86C110.971 86 115 81.9706 115 77H111ZM111 30V77H115V30H111ZM106 25C108.761 25 111 27.2386 111 30H115C115 25.0294 110.971 21 106 21V25ZM32 25H106V21H32V25ZM54.0199 73V31.5455H50.0199V73H54.0199ZM57.0398 71H52.0199V75H57.0398V71ZM55.0398 54.4588V73H59.0398V54.4588H55.0398ZM79.1435 52.4588H57.0398V56.4588H79.1435V52.4588ZM81.1435 73V54.4588H77.1435V73H81.1435ZM84.1634 71H79.1435V75H84.1634V71ZM82.1634 31.5455V73H86.1634V31.5455H82.1634ZM79.1435 33.5455H84.1634V29.5455H79.1435V33.5455ZM81.1435 50.0057V31.5455H77.1435V50.0057H81.1435ZM57.0398 52.0057H79.1435V48.0057H57.0398V52.0057ZM55.0398 31.5455V50.0057H59.0398V31.5455H55.0398ZM52.0199 33.5455H57.0398V29.5455H52.0199V33.5455Z" fill="white" mask="url(#path-2-inside-1_1_2)"/>
</svg>
