<svg xmlns="http://www.w3.org/2000/svg" xmlns:xlink="http://www.w3.org/1999/xlink" viewBox="0,0,256,256" width="100px" height="100px" fill-rule="nonzero"><g fill="#ffffff" fill-rule="nonzero" stroke="none" stroke-width="1" stroke-linecap="butt" stroke-linejoin="miter" stroke-miterlimit="10" stroke-dasharray="" stroke-dashoffset="0" font-family="none" font-weight="none" font-size="none" text-anchor="none" style="mix-blend-mode: normal"><g transform="scale(5.12,5.12)"><path d="M31.54688,2c-0.09655,0.00445 -0.19194,0.02287 -0.2832,0.05469l-25.58984,8.79883c-0.4039,0.13939 -0.67463,0.51999 -0.67383,0.94726v26.39844c0.00029,0.03328 0.00225,0.06652 0.00586,0.09961c0,0.00065 0,0.0013 0,0.00195c0.00662,0.06558 0.0197,0.13035 0.03906,0.19336c0,0.00065 0,0.0013 0,0.00195c0.01986,0.06365 0.04603,0.12515 0.07813,0.18359c0.0478,0.08728 0.10837,0.16693 0.17969,0.23633c0.02426,0.0234 0.04968,0.04557 0.07617,0.06641c0.05219,0.04199 0.10846,0.07863 0.16797,0.10938c0.02925,0.01514 0.05924,0.02883 0.08984,0.04102c0.00065,0 0.0013,0 0.00195,0c0.01163,0.00478 0.02335,0.00934 0.03516,0.01367l25.58984,8.79883c0.18758,0.06475 0.39019,0.07223 0.58203,0.02148l12.41211,-3.30078c0.43788,-0.11688 0.74243,-0.51359 0.74219,-0.9668v-37.39844c0.00024,-0.45321 -0.30431,-0.84992 -0.74219,-0.9668l-12.41211,-3.30078c-0.09737,-0.02606 -0.19811,-0.03726 -0.29883,-0.0332zM31.625,4.04492l11.375,3.02344v35.86328l-11.375,3.02344l-15.87109,-5.45898l15.11523,1.99609c0.28568,0.03768 0.57374,-0.0497 0.79034,-0.23975c0.21661,-0.19004 0.34071,-0.46428 0.34052,-0.75244v-31.90039c-0.00035,-0.3003 -0.13562,-0.58455 -0.36845,-0.77422c-0.23282,-0.18967 -0.53856,-0.26467 -0.83272,-0.2043l-16,3.29883c-0.46535,0.09561 -0.79922,0.5054 -0.79883,0.98047v21.30078l-7,2.56836v-24.25586zM30,10.82813v29.53125l-19.8418,-2.61914l5.18555,-1.90039c0.39426,-0.14435 0.65639,-0.5196 0.65625,-0.93945v-21.18555z"></path></g></g></svg>