<svg width="146" height="122" viewBox="0 0 146 122" fill="none" xmlns="http://www.w3.org/2000/svg">
<path fill-rule="evenodd" clip-rule="evenodd" d="M32 50C29.7909 50 28 51.7909 28 54V93C28 95.2091 29.7909 97 32 97H96C98.2091 97 100 95.2091 100 93V54C100 51.7909 98.2091 50 96 50H32ZM73 66C71.8954 66 71 66.8954 71 68V79C71 80.1046 71.8954 81 73 81H85C86.1046 81 87 80.1046 87 79V68C87 66.8954 86.1046 66 85 66H73Z" fill="#D9D9D9"/>
<rect x="28" y="20" width="15" height="42" rx="1" fill="#D9D9D9"/>
<rect x="56" y="20" width="15" height="42" rx="1" fill="#D9D9D9"/>
</svg>
